# xmcd CD database file
#
# Track frame offsets:
#	150
#	19838
#	30879
#	47650
#	68173
#	83389
#	96111
#	111427
#	122338
#	140005
#	158199
#	166716
#	179073
#	194345
#
# Disc length: 2763 seconds
#
# Revision: 0
# Processed by: cddbd v1.5.2PL0 Copyright (c) Steve Scherf et al.
# Submitted via: CDex 2.06
#
DISCID=ae0ac90e
DTITLE=Tommy Emmanuel - The guitar mastery of Tommy Emmanuel
DYEAR=2014
DGENRE=Jazz
TTITLE0=Somewhere over the rainbow
TTITLE1=Tall fiddler
TTITLE2=Angelina
TTITLE3=Endless road
TTITLE4=La visita
TTITLE5=Windy and warm
TTITLE6=I still can't say goodbye
TTITLE7=Gameshow rag - Cannonball rag
TTITLE8=The mistery
TTITLE9=Lewis and clark
TTITLE10=Cantina senese
TTITLE11=Antonella's birthday
TTITLE12=Cowboy's dream
TTITLE13=Sunset (bonus track)
EXTD=YEAR: 2014
EXTT0=
EXTT1=
EXTT2=
EXTT3=
EXTT4=
EXTT5=
EXTT6=
EXTT7=
EXTT8=
EXTT9=
EXTT10=
EXTT11=
EXTT12=
EXTT13=
PLAYORDER=
